<svg xmlns="http://www.w3.org/2000/svg" version="1.1" xmlns:xlink="http://www.w3.org/1999/xlink" xmlns:svgjs="http://svgjs.dev/svgjs" width="128" height="128" viewBox="0 0 128 128"><g transform="matrix(0.8046875,0,0,0.8046875,12.44182071596245,8.701096270161287)"><svg viewBox="0 0 144 155" data-background-color="#ffffff" preserveAspectRatio="xMidYMid meet" height="137" width="128" xmlns="http://www.w3.org/2000/svg" xmlns:xlink="http://www.w3.org/1999/xlink"><g id="tight-bounds" transform="matrix(1,0,0,1,0.08133802816900015,0.25)"><svg viewBox="0 0 143.837323943662 154.5" height="154.5" width="143.837323943662"><g><svg viewBox="0 0 143.837323943662 154.5" height="154.5" width="143.837323943662"><g><svg viewBox="0 0 143.837323943662 154.5" height="154.5" width="143.837323943662"><g id="textblocktransform"><svg viewBox="0 0 143.837323943662 154.5" height="154.5" width="143.837323943662" id="textblock"><g><svg viewBox="0 0 143.837323943662 154.5" height="154.5" width="143.837323943662"><g transform="matrix(1,0,0,1,0,0)"><svg width="143.837323943662" viewBox="2 -35.5 33.05 35.5" height="154.5" data-palette-color="#35185a"><path d="M17.95 0L17.95 0 6.15 0Q3.7 0 2.85-0.35 2-0.7 2-1.5L2-1.5 2-33.05Q2-34.35 3.1-34.93 4.2-35.5 6.9-35.5L6.9-35.5 18.15-35.5Q27.75-35.5 31.4-31.73 35.05-27.95 35.05-18 35.05-8.05 31.25-4.03 27.45 0 17.95 0ZM17.55-28.05L17.55-28.05Q16.35-28.05 15.95-27.85L15.95-27.85 15.95-7.65 17.85-7.45Q19.35-7.45 20.13-9.85 20.9-12.25 20.9-18.15 20.9-24.05 20.1-26.05 19.3-28.05 17.55-28.05Z" opacity="1" transform="matrix(1,0,0,1,0,0)" fill="#ffffff" class="undefined-text-0" data-fill-palette-color="primary" id="text-0"></path></svg></g></svg></g></svg></g></svg></g></svg></g><defs></defs></svg><rect width="143.837323943662" height="154.5" fill="none" stroke="none" visibility="hidden"></rect></g></svg></g></svg>